<svg width="50" height="50" viewBox="0 0 50 50" fill="none" xmlns="http://www.w3.org/2000/svg">
<path d="M25 29C26.6569 29 28 27.6569 28 26C28 24.3431 26.6569 23 25 23C23.3431 23 22 24.3431 22 26C22 27.6569 23.3431 29 25 29Z" stroke="#CF4B05" stroke-width="1.5"/>
<path d="M15 26.364C15 23.299 15 21.767 15.749 20.667C16.0746 20.189 16.4912 19.7799 16.975 19.463C17.695 18.99 18.597 18.821 19.978 18.761C20.637 18.761 21.204 18.271 21.333 17.636C21.4316 17.1709 21.6877 16.7541 22.0582 16.456C22.4286 16.1579 22.8905 15.9969 23.366 16H26.634C27.622 16 28.473 16.685 28.667 17.636C28.796 18.271 29.363 18.761 30.022 18.761C31.402 18.821 32.304 18.991 33.025 19.463C33.51 19.781 33.927 20.19 34.251 20.667C35 21.767 35 23.299 35 26.364C35 29.429 35 30.96 34.251 32.061C33.9254 32.5391 33.5088 32.9482 33.025 33.265C31.904 34 30.343 34 27.222 34H22.778C19.657 34 18.096 34 16.975 33.265C16.4914 32.9478 16.0752 32.5383 15.75 32.06C15.5327 31.7364 15.3727 31.3779 15.277 31M32 23H31" stroke="#CF4B05" stroke-width="1.5" stroke-linecap="round"/>
</svg>
