<svg width="183" height="60" viewBox="0 0 183 60" fill="none" xmlns="http://www.w3.org/2000/svg">
<circle cx="30" cy="30" r="30" fill="#CF4B05"/>
<path fill-rule="evenodd" clip-rule="evenodd" d="M12.0898 17.8469C10.457 18.9724 8.57107 21.1761 7.19647 23.6222C6.51189 24.8404 5.97511 26.0824 5.66168 27.2355C5.34525 28.3996 5.27544 29.403 5.44566 30.1814C5.81188 31.8562 6.85685 33.0848 8.19051 33.8211C9.55004 34.5716 11.1818 34.7923 12.619 34.4403C13.322 34.2681 13.882 33.9782 14.3223 33.5608C14.7623 33.1437 15.1349 32.55 15.3883 31.6901C15.907 29.9293 15.8957 27.1541 15.0033 22.916C14.882 22.3397 15.2508 21.7741 15.8271 21.6528C16.4034 21.5315 16.969 21.9003 17.0903 22.4766C18.0045 26.818 18.1047 30.0166 17.4341 32.2928C17.0927 33.4515 16.5455 34.392 15.7896 35.1086C15.034 35.8249 14.122 36.268 13.1264 36.5118C11.5146 36.9066 9.76597 36.775 8.19153 36.1685L6.54604 39.6902C6.29674 40.2238 5.66209 40.4543 5.12852 40.205C4.59495 39.9556 4.36451 39.321 4.61381 38.7874L6.31337 35.15C4.89741 34.1198 3.79099 32.5981 3.36215 30.6371C3.0919 29.4012 3.23683 28.0254 3.60361 26.676C3.9734 25.3156 4.58832 23.91 5.33719 22.5774C6.82301 19.9333 8.91973 17.4314 10.9087 16.0707L10.9321 16.0548L10.9563 16.04C15.7444 13.1252 21.6066 13.3577 24.7681 16.1519C26.2401 17.4528 27.0682 18.6707 27.5719 20.012C27.9988 21.1485 28.1782 22.3521 28.3673 23.6202C28.3905 23.7761 28.4139 23.933 28.4379 24.0908C28.5857 24.7688 28.7591 25.1431 28.9916 25.4333C29.241 25.7446 29.6297 26.0493 30.3735 26.4703C31.2006 26.9385 32.1219 27.5972 32.6487 28.4971C32.924 28.9673 33.0987 29.5163 33.079 30.1282C33.0592 30.7381 32.8488 31.3319 32.479 31.8986C32.3601 32.0808 32.2296 32.2904 32.0877 32.5186C31.6186 33.2723 31.0241 34.2277 30.3045 35.0632C29.3383 36.1851 28.0345 37.2409 26.2243 37.5805C24.8079 37.8462 23.5316 37.6109 22.5527 37.2856C22.9013 37.9984 23.3993 38.7477 24.1271 39.6126C25.0216 40.6756 26.5901 41.7711 28.0242 42.6323C28.7255 43.0534 29.3663 43.402 29.8317 43.6451C30.064 43.7665 30.2517 43.8612 30.3802 43.925C30.4444 43.9569 30.4938 43.981 30.5266 43.9969L30.5629 44.0145L30.5713 44.0185L30.5728 44.0192C31.1048 44.2721 31.331 44.9082 31.0782 45.4401C30.8254 45.972 30.1892 46.1983 29.6573 45.9455L30.1151 44.9824C29.6573 45.9455 29.6574 45.9455 29.6573 45.9455L29.6519 45.9429L29.6397 45.9371L29.5954 45.9157C29.5573 45.8971 29.5022 45.8702 29.432 45.8354C29.2916 45.7657 29.0906 45.6643 28.8439 45.5354C28.351 45.2778 27.672 44.9085 26.9263 44.4607C25.4666 43.5841 23.6331 42.338 22.4953 40.9858C21.4234 39.7119 20.7158 38.5643 20.2644 37.3585C19.8138 36.1551 19.6414 34.9539 19.5662 33.614C19.5332 33.026 19.9831 32.5225 20.5711 32.4895C21.1591 32.4565 21.6626 32.9064 21.6956 33.4944C21.7182 33.8967 21.7496 34.2704 21.7937 34.6236C21.7984 34.626 21.8031 34.6285 21.8078 34.631C22.0385 34.7534 22.3313 34.9086 22.6983 35.0631C23.5253 35.411 24.6301 35.7096 25.8311 35.4843C26.9957 35.2658 27.9031 34.5833 28.6885 33.6715C29.2896 32.9735 29.7557 32.2253 30.2096 31.4969C30.3704 31.2387 30.5298 30.983 30.693 30.7329C30.8911 30.4294 30.9425 30.209 30.9473 30.0593C30.9521 29.9116 30.9142 29.7557 30.8081 29.5745C30.5723 29.1717 30.0569 28.7418 29.3229 28.3264C28.5057 27.8638 27.833 27.3983 27.3271 26.7667C26.8078 26.1184 26.5336 25.384 26.3459 24.5069L26.3393 24.4759L26.3345 24.4446C26.3082 24.2722 26.2831 24.1055 26.2589 23.944C26.0625 22.6377 25.9175 21.6729 25.5753 20.7618C25.2117 19.7936 24.6068 18.8557 23.3557 17.7499C21.0753 15.7345 16.2941 15.3004 12.0898 17.8469Z" fill="white"/>
<path d="M24.0208 25.4645C24.0208 26.2329 23.3979 26.8558 22.6296 26.8558C21.8612 26.8558 21.2383 26.2329 21.2383 25.4645C21.2383 24.6961 21.8612 24.0732 22.6296 24.0732C23.3979 24.0732 24.0208 24.6961 24.0208 25.4645Z" fill="white"/>
<path fill-rule="evenodd" clip-rule="evenodd" d="M47.9121 17.8469C49.545 18.9724 51.4309 21.1761 52.8055 23.6222C53.4901 24.8404 54.0268 26.0824 54.3403 27.2355C54.6567 28.3996 54.7265 29.403 54.5563 30.1814C54.1901 31.8562 53.1451 33.0848 51.8114 33.8211C50.4519 34.5716 48.8201 34.7923 47.3829 34.4403C46.6799 34.2681 46.12 33.9782 45.6797 33.5608C45.2397 33.1437 44.867 32.55 44.6137 31.6901C44.0949 29.9293 44.1062 27.1541 44.9986 22.916C45.12 22.3397 44.7511 21.7741 44.1748 21.6528C43.5985 21.5315 43.033 21.9003 42.9116 22.4766C41.9975 26.818 41.8973 30.0166 42.5679 32.2928C42.9092 33.4515 43.4565 34.392 44.2124 35.1086C44.968 35.8249 45.8799 36.268 46.8756 36.5118C48.4873 36.9066 50.236 36.775 51.8104 36.1685L53.4559 39.6902C53.7052 40.2238 54.3399 40.4543 54.8734 40.205C55.407 39.9556 55.6374 39.321 55.3881 38.7874L53.6886 35.15C55.1045 34.1198 56.211 32.5981 56.6398 30.6371C56.91 29.4012 56.7651 28.0254 56.3983 26.676C56.0286 25.3156 55.4136 23.91 54.6648 22.5774C53.1789 19.9333 51.0822 17.4314 49.0932 16.0707L49.0698 16.0548L49.0456 16.04C44.2576 13.1252 38.3954 13.3577 35.2339 16.1519C33.7619 17.4528 32.9338 18.6707 32.4301 20.012C32.0032 21.1485 31.8237 22.3521 31.6347 23.6202C31.6114 23.7761 31.588 23.933 31.564 24.0908C31.4162 24.7688 31.2428 25.1431 31.0103 25.4333C30.761 25.7446 30.3723 26.0493 29.6284 26.4703C28.8014 26.9385 27.88 27.5972 27.3532 28.4971C27.078 28.9673 26.9032 29.5163 26.923 30.1282C26.9427 30.7381 27.1531 31.3319 27.5229 31.8986C27.6419 32.0808 27.7723 32.2904 27.9143 32.5186C28.3833 33.2723 28.9779 34.2277 29.6974 35.0632C30.6636 36.1851 31.9675 37.2409 33.7776 37.5805C35.194 37.8462 36.4704 37.6109 37.4492 37.2856C37.1007 37.9984 36.6026 38.7477 35.8748 39.6126C34.9803 40.6756 33.4118 41.7711 31.9777 42.6323C31.2765 43.0534 30.6356 43.402 30.1703 43.6451C29.938 43.7665 29.7503 43.8612 29.6218 43.925C29.5575 43.9569 29.5081 43.981 29.4754 43.9969L29.439 44.0145L29.4307 44.0185L29.4291 44.0192C28.8972 44.2721 28.6709 44.9082 28.9238 45.4401C29.1766 45.972 29.8127 46.1983 30.3447 45.9455L29.8869 44.9824C30.3447 45.9455 30.3445 45.9455 30.3447 45.9455L30.35 45.9429L30.3622 45.9371L30.4065 45.9157C30.4447 45.8971 30.4998 45.8702 30.57 45.8354C30.7103 45.7657 30.9113 45.6643 31.1581 45.5354C31.6509 45.2778 32.33 44.9085 33.0757 44.4607C34.5354 43.5841 36.3688 42.338 37.5067 40.9858C38.5786 39.7119 39.2862 38.5643 39.7376 37.3585C40.1881 36.1551 40.3605 34.9539 40.4357 33.614C40.4688 33.026 40.0189 32.5225 39.4308 32.4895C38.8428 32.4565 38.3394 32.9064 38.3064 33.4944C38.2838 33.8967 38.2524 34.2704 38.2082 34.6236C38.2036 34.626 38.1989 34.6285 38.1942 34.631C37.9635 34.7534 37.6706 34.9086 37.3036 35.0631C36.4767 35.411 35.3718 35.7096 34.1709 35.4843C33.0062 35.2658 32.0988 34.5833 31.3135 33.6715C30.7124 32.9735 30.2462 32.2253 29.7924 31.4969C29.6315 31.2387 29.4722 30.983 29.309 30.7329C29.1109 30.4294 29.0595 30.209 29.0546 30.0593C29.0498 29.9116 29.0878 29.7557 29.1938 29.5745C29.4296 29.1717 29.945 28.7418 30.679 28.3264C31.4962 27.8638 32.1689 27.3983 32.6748 26.7667C33.1942 26.1184 33.4684 25.384 33.656 24.5069L33.6627 24.4759L33.6675 24.4446C33.6938 24.2722 33.7188 24.1055 33.7431 23.944C33.9394 22.6377 34.0844 21.6729 34.4266 20.7618C34.7903 19.7936 35.3951 18.8557 36.6463 17.7499C38.9266 15.7345 43.7078 15.3004 47.9121 17.8469Z" fill="white"/>
<path d="M35.9811 25.4645C35.9811 26.2329 36.604 26.8558 37.3724 26.8558C38.1408 26.8558 38.7637 26.2329 38.7637 25.4645C38.7637 24.6961 38.1408 24.0732 37.3724 24.0732C36.604 24.0732 35.9811 24.6961 35.9811 25.4645Z" fill="white"/>
<path d="M77.624 35.068L72.248 25.372V38.62H69.992V21.052H72.392L78.656 32.26L84.896 21.052H87.344V38.62H85.064V25.372L79.688 35.068H77.624ZM92.8316 33.844C92.8316 35.62 93.8876 36.796 95.4236 36.796C97.1036 36.796 98.2796 35.692 98.2556 33.94V27.316H100.56V38.644H98.2556V37.3C97.5356 38.188 96.3116 38.764 95.2076 38.764C92.4956 38.764 90.5516 36.772 90.5516 33.964V27.316H92.8316V33.844ZM110.991 32.26C110.991 30.46 110.007 29.308 108.423 29.308C106.767 29.332 105.519 30.628 105.543 32.26V38.644H103.263V27.316H105.543V28.924C106.287 27.988 107.511 27.34 108.639 27.34C110.943 27.34 113.271 28.9 113.271 32.164V38.644H110.991V32.26ZM120.758 36.772C122.63 36.772 124.046 35.092 124.046 33.028C124.046 31.012 122.63 29.284 120.758 29.284C118.862 29.284 117.566 30.796 117.566 33.028C117.566 35.26 118.862 36.772 120.758 36.772ZM126.302 37.852C126.302 41.116 124.118 43.732 120.71 43.732C118.838 43.732 117.062 42.94 115.934 41.116L117.758 39.94C118.574 41.164 119.486 41.716 120.71 41.716C122.822 41.716 124.046 40.036 124.046 37.996V36.892C123.182 38.044 121.838 38.74 120.662 38.74C117.518 38.74 115.286 36.364 115.286 33.028C115.286 29.716 117.518 27.316 120.662 27.316C121.958 27.316 123.278 27.988 124.046 29.116V27.316H126.302V37.852ZM140.709 29.788C142.701 29.788 144.093 28.396 144.093 26.404C144.093 24.436 142.677 23.044 140.685 23.044H136.701V29.788H140.709ZM140.781 21.052C144.045 21.052 146.325 23.26 146.325 26.404C146.325 29.572 144.045 31.78 140.781 31.78H136.701V38.62H134.445V21.052H140.781ZM148.399 27.316H150.679V38.62H148.399V27.316ZM149.527 21.676C150.295 21.676 150.847 22.228 150.847 22.996C150.847 23.764 150.295 24.316 149.527 24.316C148.759 24.316 148.207 23.764 148.207 22.996C148.207 22.228 148.759 21.676 149.527 21.676ZM158.335 36.58C159.271 36.58 160.351 36.1 161.023 35.38L162.607 36.916C161.623 37.972 159.847 38.74 158.431 38.74C155.047 38.74 152.671 36.364 152.671 33.028C152.671 29.692 155.047 27.316 158.431 27.316C159.895 27.316 161.599 28.06 162.607 29.14L161.023 30.676C160.351 29.956 159.271 29.476 158.335 29.476C156.319 29.476 154.951 30.892 154.951 33.028C154.951 35.164 156.319 36.58 158.335 36.58ZM166.657 21.58V32.332L170.977 27.316H174.025L169.657 32.356L174.025 38.644H171.241L168.025 34.06L166.657 35.692V38.644H164.377V21.58H166.657ZM180.103 20.644L179.743 33.988H177.583L177.175 20.644H180.103ZM178.687 36.196C179.503 36.196 180.055 36.748 180.055 37.564C180.055 38.404 179.503 38.98 178.687 38.98C177.847 38.98 177.271 38.404 177.271 37.564C177.271 36.748 177.847 36.196 178.687 36.196Z" fill="#CF4B05"/>
</svg>
