<svg width="183" height="60" viewBox="0 0 183 60" fill="none" xmlns="http://www.w3.org/2000/svg">
<ellipse cx="30.3315" cy="30" rx="30.3315" ry="30" fill="white"/>
<path fill-rule="evenodd" clip-rule="evenodd" d="M12.223 17.8469C10.5721 18.9724 8.66533 21.1761 7.27554 23.6222C6.58339 24.8404 6.04068 26.0824 5.72378 27.2355C5.40386 28.3996 5.33328 29.403 5.50538 30.1814C5.87565 31.8562 6.93217 33.0848 8.28056 33.8211C9.65511 34.5716 11.3049 34.7923 12.758 34.4403C13.4688 34.2681 14.0349 33.9782 14.4801 33.5608C14.9249 33.1437 15.3017 32.55 15.5579 31.6901C16.0823 29.9293 16.0709 27.1541 15.1687 22.916C15.046 22.3397 15.4189 21.7741 16.0015 21.6528C16.5842 21.5315 17.156 21.9003 17.2787 22.4766C18.2029 26.818 18.3043 30.0166 17.6263 32.2928C17.2811 33.4515 16.7278 34.392 15.9636 35.1086C15.1996 35.8249 14.2776 36.268 13.271 36.5118C11.6414 36.9066 9.87343 36.775 8.28159 36.1685L6.61792 39.6902C6.36586 40.2238 5.7242 40.4543 5.18474 40.205C4.64527 39.9556 4.41228 39.321 4.66434 38.7874L6.38268 35.15C4.95107 34.1198 3.83243 32.5981 3.39885 30.6371C3.12562 29.4012 3.27214 28.0254 3.64298 26.676C4.01685 25.3156 4.63856 23.91 5.39571 22.5774C6.89795 19.9333 9.01784 17.4314 11.0288 16.0707L11.0525 16.0548L11.0769 16.04C15.9179 13.1252 21.8449 13.3577 25.0413 16.1519C26.5296 17.4528 27.3668 18.6707 27.8761 20.012C28.3077 21.1485 28.4891 22.3521 28.6803 23.6202C28.7038 23.7761 28.7274 23.933 28.7517 24.0908C28.9011 24.7688 29.0764 25.1431 29.3115 25.4333C29.5636 25.7446 29.9566 26.0493 30.7087 26.4703C31.5449 26.9385 32.4764 27.5972 33.009 28.4971C33.2873 28.9673 33.464 29.5163 33.444 30.1282C33.4241 30.7381 33.2113 31.3319 32.8374 31.8986C32.7172 32.0808 32.5853 32.2904 32.4418 32.5186C31.9676 33.2723 31.3664 34.2277 30.6389 35.0632C29.662 36.1851 28.3438 37.2409 26.5137 37.5805C25.0816 37.8462 23.7911 37.6109 22.8015 37.2856C23.1539 37.9984 23.6574 38.7477 24.3933 39.6126C25.2976 40.6756 26.8835 41.7711 28.3335 42.6323C29.0424 43.0534 29.6904 43.402 30.1608 43.6451C30.3957 43.7665 30.5855 43.8612 30.7154 43.925C30.7804 43.9569 30.8303 43.981 30.8634 43.9969L30.9002 44.0145L30.9086 44.0185L30.9102 44.0192C31.448 44.2721 31.6768 44.9082 31.4211 45.4401C31.1655 45.972 30.5223 46.1983 29.9845 45.9455L30.4474 44.9824C29.9845 45.9455 29.9847 45.9455 29.9845 45.9455L29.9791 45.9429L29.9668 45.9371L29.922 45.9157C29.8834 45.8971 29.8277 45.8702 29.7567 45.8354C29.6148 45.7657 29.4116 45.6643 29.1621 45.5354C28.6638 45.2778 27.9773 44.9085 27.2234 44.4607C25.7475 43.5841 23.8938 42.338 22.7434 40.9858C21.6597 39.7119 20.9442 38.5643 20.4878 37.3585C20.0323 36.1551 19.858 34.9539 19.782 33.614C19.7486 33.026 20.2035 32.5225 20.798 32.4895C21.3925 32.4565 21.9015 32.9064 21.9349 33.4944C21.9577 33.8967 21.9895 34.2704 22.0341 34.6236C22.0388 34.626 22.0435 34.6285 22.0483 34.631C22.2816 34.7534 22.5776 34.9086 22.9487 35.0631C23.7848 35.411 24.9018 35.7096 26.116 35.4843C27.2936 35.2658 28.211 34.5833 29.005 33.6715C29.6128 32.9735 30.0841 32.2253 30.5429 31.4969C30.7056 31.2387 30.8667 30.983 31.0317 30.7329C31.2319 30.4294 31.2839 30.209 31.2888 30.0593C31.2937 29.9116 31.2553 29.7557 31.1481 29.5745C30.9097 29.1717 30.3886 28.7418 29.6465 28.3264C28.8202 27.8638 28.1401 27.3983 27.6286 26.7667C27.1035 26.1184 26.8263 25.384 26.6366 24.5069L26.6299 24.4759L26.625 24.4446C26.5984 24.2722 26.5731 24.1055 26.5486 23.944C26.3501 22.6377 26.2034 21.6729 25.8575 20.7618C25.4898 19.7936 24.8783 18.8557 23.6133 17.7499C21.3078 15.7345 16.4737 15.3004 12.223 17.8469Z" fill="#CF4B05"/>
<path d="M24.286 25.4645C24.286 26.2329 23.6562 26.8558 22.8793 26.8558C22.1024 26.8558 21.4727 26.2329 21.4727 25.4645C21.4727 24.6961 22.1024 24.0732 22.8793 24.0732C23.6562 24.0732 24.286 24.6961 24.286 25.4645Z" fill="#CF4B05"/>
<path fill-rule="evenodd" clip-rule="evenodd" d="M48.4411 17.8469C50.092 18.9724 51.9987 21.1761 53.3885 23.6222C54.0807 24.8404 54.6234 26.0824 54.9403 27.2355C55.2602 28.3996 55.3308 29.403 55.1587 30.1814C54.7884 31.8562 53.7319 33.0848 52.3835 33.8211C51.009 34.5716 49.3591 34.7923 47.9061 34.4403C47.1953 34.2681 46.6292 33.9782 46.184 33.5608C45.7391 33.1437 45.3623 32.55 45.1062 31.6901C44.5817 29.9293 44.5932 27.1541 45.4954 22.916C45.6181 22.3397 45.2452 21.7741 44.6625 21.6528C44.0798 21.5315 43.508 21.9003 43.3853 22.4766C42.4611 26.818 42.3598 30.0166 43.0378 32.2928C43.3829 33.4515 43.9362 34.392 44.7005 35.1086C45.4644 35.8249 46.3865 36.268 47.3931 36.5118C49.0226 36.9066 50.7906 36.775 52.3825 36.1685L54.0461 39.6902C54.2982 40.2238 54.9399 40.4543 55.4793 40.205C56.0188 39.9556 56.2518 39.321 55.9997 38.7874L54.2814 35.15C55.713 34.1198 56.8316 32.5981 57.2652 30.6371C57.5384 29.4012 57.3919 28.0254 57.0211 26.676C56.6472 25.3156 56.0255 23.91 55.2684 22.5774C53.7661 19.9333 51.6462 17.4314 49.6352 16.0707L49.6116 16.0548L49.5871 16.04C44.7462 13.1252 38.8192 13.3577 35.6228 16.1519C34.1345 17.4528 33.2973 18.6707 32.788 20.012C32.3564 21.1485 32.1749 22.3521 31.9838 23.6202C31.9603 23.7761 31.9366 23.933 31.9123 24.0908C31.7629 24.7688 31.5876 25.1431 31.3525 25.4333C31.1004 25.7446 30.7075 26.0493 29.9554 26.4703C29.1192 26.9385 28.1876 27.5972 27.655 28.4971C27.3768 28.9673 27.2 29.5163 27.22 30.1282C27.24 30.7381 27.4527 31.3319 27.8266 31.8986C27.9469 32.0808 28.0788 32.2904 28.2223 32.5186C28.6965 33.2723 29.2976 34.2277 30.0252 35.0632C31.002 36.1851 32.3203 37.2409 34.1504 37.5805C35.5825 37.8462 36.8729 37.6109 37.8626 37.2856C37.5102 37.9984 37.0066 38.7477 36.2708 39.6126C35.3664 40.6756 33.7806 41.7711 32.3306 42.6323C31.6216 43.0534 30.9737 43.402 30.5032 43.6451C30.2683 43.7665 30.0786 43.8612 29.9486 43.925C29.8837 43.9569 29.8337 43.981 29.8006 43.9969L29.7639 44.0145L29.7554 44.0185L29.7538 44.0192C29.2161 44.2721 28.9873 44.9082 29.2429 45.4401C29.4985 45.972 30.1417 46.1983 30.6795 45.9455L30.2167 44.9824C30.6795 45.9455 30.6794 45.9455 30.6795 45.9455L30.6849 45.9429L30.6973 45.9371L30.7421 45.9157C30.7807 45.8971 30.8364 45.8702 30.9073 45.8354C31.0492 45.7657 31.2524 45.6643 31.5019 45.5354C32.0002 45.2778 32.6868 44.9085 33.4407 44.4607C34.9165 43.5841 36.7702 42.338 37.9207 40.9858C39.0044 39.7119 39.7198 38.5643 40.1762 37.3585C40.6318 36.1551 40.806 34.9539 40.8821 33.614C40.9155 33.026 40.4606 32.5225 39.8661 32.4895C39.2716 32.4565 38.7626 32.9064 38.7292 33.4944C38.7064 33.8967 38.6746 34.2704 38.63 34.6236C38.6253 34.626 38.6205 34.6285 38.6158 34.631C38.3825 34.7534 38.0864 34.9086 37.7154 35.0631C36.8793 35.411 35.7622 35.7096 34.548 35.4843C33.3705 35.2658 32.4531 34.5833 31.659 33.6715C31.0513 32.9735 30.58 32.2253 30.1211 31.4969C29.9585 31.2387 29.7974 30.983 29.6324 30.7329C29.4321 30.4294 29.3801 30.209 29.3752 30.0593C29.3704 29.9116 29.4088 29.7557 29.516 29.5745C29.7544 29.1717 30.2755 28.7418 31.0176 28.3264C31.8438 27.8638 32.5239 27.3983 33.0354 26.7667C33.5605 26.1184 33.8377 25.384 34.0275 24.5069L34.0342 24.4759L34.039 24.4446C34.0656 24.2722 34.091 24.1055 34.1155 23.944C34.314 22.6377 34.4606 21.6729 34.8066 20.7618C35.1742 19.7936 35.7858 18.8557 37.0507 17.7499C39.3563 15.7345 44.1904 15.3004 48.4411 17.8469Z" fill="#CF4B05"/>
<path d="M36.3791 25.4645C36.3791 26.2329 37.0089 26.8558 37.7857 26.8558C38.5626 26.8558 39.1924 26.2329 39.1924 25.4645C39.1924 24.6961 38.5626 24.0732 37.7857 24.0732C37.0089 24.0732 36.3791 24.6961 36.3791 25.4645Z" fill="#CF4B05"/>
<path d="M77.661 35.288L72.843 26.73V38.676H70.511V22.44H73.041L78.695 32.362L84.327 22.44H86.879V38.676H84.547V26.73L79.707 35.288H77.661ZM92.6485 34.188C92.6485 35.794 93.5945 36.784 94.9805 36.784C96.4545 36.784 97.4665 35.816 97.4445 34.21V28.204H99.7985V38.698H97.4445V37.488C96.7845 38.302 95.7065 38.786 94.6725 38.786C92.1425 38.786 90.3165 36.96 90.3165 34.276V28.204H92.6485V34.188ZM109.948 32.912C109.948 31.24 109.09 30.228 107.638 30.228C106.208 30.25 105.108 31.372 105.13 32.912V38.698H102.798V28.204H105.13V29.634C105.79 28.82 106.912 28.226 107.924 28.226C109.904 28.226 112.28 29.524 112.28 32.824V38.698H109.948V32.912ZM119.752 36.762C121.424 36.762 122.634 35.288 122.634 33.462C122.634 31.68 121.424 30.184 119.752 30.184C118.102 30.184 116.98 31.482 116.98 33.462C116.98 35.464 118.102 36.762 119.752 36.762ZM124.966 37.906C124.966 40.898 122.942 43.362 119.73 43.362C117.97 43.362 116.276 42.636 115.242 40.92L117.09 39.688C117.86 40.81 118.608 41.294 119.73 41.294C121.6 41.294 122.634 39.82 122.634 38.104V37.18C121.82 38.214 120.61 38.764 119.62 38.764C116.716 38.764 114.648 36.564 114.648 33.484C114.648 30.404 116.716 28.182 119.62 28.182C120.698 28.182 121.908 28.732 122.634 29.722V28.182H124.966V37.906ZM139.335 30.536C141.095 30.536 142.327 29.282 142.327 27.5C142.327 25.74 141.073 24.486 139.313 24.486H135.749V30.536H139.335ZM139.401 22.44C142.481 22.44 144.637 24.53 144.637 27.5C144.637 30.47 142.481 32.56 139.401 32.56H135.749V38.676H133.417V22.44H139.401ZM146.953 28.182H149.285V38.676H146.953V28.182ZM148.119 22.946C148.889 22.946 149.439 23.496 149.439 24.266C149.439 25.036 148.889 25.586 148.119 25.586C147.349 25.586 146.799 25.036 146.799 24.266C146.799 23.496 147.349 22.946 148.119 22.946ZM156.891 36.542C157.705 36.542 158.651 36.124 159.245 35.464L160.851 37.07C159.949 38.06 158.299 38.764 156.979 38.764C153.855 38.764 151.655 36.564 151.655 33.484C151.655 30.382 153.855 28.182 156.979 28.182C158.365 28.182 159.905 28.886 160.851 29.898L159.245 31.482C158.651 30.822 157.705 30.404 156.891 30.404C155.153 30.404 153.987 31.614 153.987 33.484C153.987 35.332 155.153 36.542 156.891 36.542ZM165.311 22.968V32.538L169.051 28.204H172.197L168.105 32.89L172.109 38.698H169.271L166.433 34.628L165.311 35.948V38.698H162.979V22.968H165.311ZM178.509 21.89L178.157 34.21H175.913L175.495 21.89H178.509ZM177.057 36.278C177.849 36.278 178.399 36.828 178.399 37.642C178.399 38.456 177.849 39.028 177.057 39.028C176.243 39.028 175.671 38.456 175.671 37.642C175.671 36.828 176.243 36.278 177.057 36.278Z" fill="white"/>
</svg>
