<svg width="17" height="16" viewBox="0 0 17 16" fill="none" xmlns="http://www.w3.org/2000/svg">
<path d="M15.0636 8C15.0636 4.52204 12.2435 1.70224 8.76562 1.70206C5.28755 1.70206 2.46768 4.52193 2.46768 8C2.46786 11.4779 5.28766 14.2979 8.76562 14.2979C12.2434 14.2978 15.0634 11.4778 15.0636 8ZM16.7656 8C16.7654 12.4178 13.1835 15.9998 8.76562 16C4.34764 16 0.765804 12.4179 0.765625 8C0.765625 3.58191 4.34753 0 8.76562 0C13.1836 0.000179392 16.7656 3.58202 16.7656 8Z" fill="#E62D2D"/>
<path d="M7.74512 8.00005V11.0634C7.74512 11.6274 8.20167 12.084 8.76569 12.084C9.3297 12.084 9.78626 11.6274 9.78626 11.0634V8.00005C9.78626 7.43603 9.3297 6.97781 8.76569 6.97781C8.20167 6.97781 7.74512 7.43603 7.74512 8.00005Z" fill="#E62D2D"/>
<path d="M9.78661 4.9358C9.78661 4.37179 9.32939 3.91456 8.76537 3.91456C8.20136 3.91456 7.74414 4.37179 7.74414 4.9358C7.74414 5.49981 8.20136 5.95703 8.76537 5.95703C9.32939 5.95703 9.78661 5.49981 9.78661 4.9358Z" fill="#E62D2D"/>
</svg>
