<svg width="32" height="32" viewBox="0 0 32 32" fill="none" xmlns="http://www.w3.org/2000/svg">
<mask id="mask0_579_39069" style="mask-type:luminance" maskUnits="userSpaceOnUse" x="4" y="1" width="24" height="24">
<path fill-rule="evenodd" clip-rule="evenodd" d="M4.02148 1.79199H27.9133V24.1998H4.02148V1.79199Z" fill="white"/>
</mask>
<g mask="url(#mask0_579_39069)">
<path fill-rule="evenodd" clip-rule="evenodd" d="M15.9655 3.72949C11.4512 3.72949 8.30467 7.26608 8.30467 10.4397C8.30467 13.1251 7.55938 14.3664 6.90063 15.4617C6.37233 16.3413 5.95513 17.0362 5.95513 18.5462C6.17083 20.9823 7.77896 22.2623 15.9655 22.2623C24.1069 22.2623 25.7654 20.9255 25.9798 18.4622C25.976 17.0362 25.5588 16.3413 25.0305 15.4617C24.3717 14.3664 23.6264 13.1251 23.6264 10.4397C23.6264 7.26608 20.4799 3.72949 15.9655 3.72949ZM15.9655 24.1998C9.92571 24.1998 4.46713 23.7736 4.0215 18.6289C4.01763 16.5002 4.66733 15.4178 5.24083 14.4645C5.82079 13.4984 6.36717 12.5877 6.36717 10.4397C6.36717 6.26374 10.2241 1.79199 15.9655 1.79199C21.707 1.79199 25.5639 6.26374 25.5639 10.4397C25.5639 12.5877 26.1103 13.4984 26.6903 14.4645C27.2638 15.4178 27.9135 16.5002 27.9135 18.5462C27.4627 23.7736 22.0054 24.1998 15.9655 24.1998Z" fill="black"/>
</g>
<path fill-rule="evenodd" clip-rule="evenodd" d="M15.9023 29.5625H15.8997C14.4518 29.5612 13.0813 28.9232 12.0415 27.7645C11.6837 27.368 11.716 26.7545 12.1139 26.398C12.5117 26.0389 13.1239 26.0712 13.4817 26.4703C14.1508 27.2156 15.0098 27.625 15.901 27.625H15.9023C16.7974 27.625 17.6603 27.2156 18.3306 26.469C18.6897 26.0725 19.302 26.0402 19.6985 26.398C20.0964 26.7557 20.1286 27.3693 19.7709 27.7658C18.7272 28.9245 17.3541 29.5625 15.9023 29.5625Z" fill="black"/>
</svg>
