<svg width="30" height="30" viewBox="0 0 30 30" fill="none" xmlns="http://www.w3.org/2000/svg">
<path fill-rule="evenodd" clip-rule="evenodd" d="M25.8347 12.3789H3.55469C3.03719 12.3789 2.61719 11.9589 2.61719 11.4414C2.61719 10.9239 3.03719 10.5039 3.55469 10.5039H25.8347C26.3522 10.5039 26.7722 10.9239 26.7722 11.4414C26.7722 11.9589 26.3522 12.3789 25.8347 12.3789" fill="black"/>
<path fill-rule="evenodd" clip-rule="evenodd" d="M20.253 17.2617C19.7355 17.2617 19.3105 16.8417 19.3105 16.3242C19.3105 15.8067 19.7243 15.3867 20.2418 15.3867H20.253C20.7705 15.3867 21.1905 15.8067 21.1905 16.3242C21.1905 16.8417 20.7705 17.2617 20.253 17.2617" fill="black"/>
<path fill-rule="evenodd" clip-rule="evenodd" d="M14.7062 17.2617C14.1887 17.2617 13.7637 16.8417 13.7637 16.3242C13.7637 15.8067 14.1774 15.3867 14.6949 15.3867H14.7062C15.2237 15.3867 15.6437 15.8067 15.6437 16.3242C15.6437 16.8417 15.2237 17.2617 14.7062 17.2617" fill="black"/>
<path fill-rule="evenodd" clip-rule="evenodd" d="M9.14687 17.2617C8.62937 17.2617 8.20312 16.8417 8.20312 16.3242C8.20312 15.8067 8.61812 15.3867 9.13562 15.3867H9.14687C9.66437 15.3867 10.0844 15.8067 10.0844 16.3242C10.0844 16.8417 9.66437 17.2617 9.14687 17.2617" fill="black"/>
<path fill-rule="evenodd" clip-rule="evenodd" d="M20.253 22.1211C19.7355 22.1211 19.3105 21.7011 19.3105 21.1836C19.3105 20.6661 19.7243 20.2461 20.2418 20.2461H20.253C20.7705 20.2461 21.1905 20.6661 21.1905 21.1836C21.1905 21.7011 20.7705 22.1211 20.253 22.1211" fill="black"/>
<path fill-rule="evenodd" clip-rule="evenodd" d="M14.7062 22.1211C14.1887 22.1211 13.7637 21.7011 13.7637 21.1836C13.7637 20.6661 14.1774 20.2461 14.6949 20.2461H14.7062C15.2237 20.2461 15.6437 20.6661 15.6437 21.1836C15.6437 21.7011 15.2237 22.1211 14.7062 22.1211" fill="black"/>
<path fill-rule="evenodd" clip-rule="evenodd" d="M9.14687 22.1211C8.62937 22.1211 8.20312 21.7011 8.20312 21.1836C8.20312 20.6661 8.61812 20.2461 9.13562 20.2461H9.14687C9.66437 20.2461 10.0844 20.6661 10.0844 21.1836C10.0844 21.7011 9.66437 22.1211 9.14687 22.1211" fill="black"/>
<path fill-rule="evenodd" clip-rule="evenodd" d="M19.7422 7.23875C19.2247 7.23875 18.8047 6.81875 18.8047 6.30125V2.1875C18.8047 1.67 19.2247 1.25 19.7422 1.25C20.2597 1.25 20.6797 1.67 20.6797 2.1875V6.30125C20.6797 6.81875 20.2597 7.23875 19.7422 7.23875" fill="black"/>
<path fill-rule="evenodd" clip-rule="evenodd" d="M9.64453 7.23875C9.12703 7.23875 8.70703 6.81875 8.70703 6.30125V2.1875C8.70703 1.67 9.12703 1.25 9.64453 1.25C10.162 1.25 10.582 1.67 10.582 2.1875V6.30125C10.582 6.81875 10.162 7.23875 9.64453 7.23875" fill="black"/>
<mask id="mask0_711_7138" style="mask-type:luminance" maskUnits="userSpaceOnUse" x="2" y="3" width="25" height="26">
<path fill-rule="evenodd" clip-rule="evenodd" d="M2.5 3.22266H26.875V28.1238H2.5V3.22266Z" fill="white"/>
</mask>
<g mask="url(#mask0_711_7138)">
<path fill-rule="evenodd" clip-rule="evenodd" d="M9.40125 5.09766C6.16 5.09766 4.375 6.82641 4.375 9.96516V21.2764C4.375 24.4839 6.16 26.2489 9.40125 26.2489H19.9737C23.215 26.2489 25 24.5164 25 21.3714V9.96516C25.005 8.42141 24.59 7.22141 23.7662 6.39641C22.9187 5.54641 21.6125 5.09766 19.985 5.09766H9.40125ZM19.9737 28.1239H9.40125C5.145 28.1239 2.5 25.5002 2.5 21.2764V9.96516C2.5 5.80516 5.145 3.22266 9.40125 3.22266H19.985C22.1212 3.22266 23.8875 3.86266 25.0937 5.07141C26.265 6.24766 26.8812 7.93891 26.875 9.96766V21.3714C26.875 25.5364 24.23 28.1239 19.9737 28.1239V28.1239Z" fill="black"/>
</g>
</svg>
