<svg width="32" height="31" viewBox="0 0 32 31" fill="none" xmlns="http://www.w3.org/2000/svg">
<mask id="mask0_1112_19615" style="mask-type:luminance" maskUnits="userSpaceOnUse" x="2" y="2" width="28" height="28">
<path fill-rule="evenodd" clip-rule="evenodd" d="M2.18164 2.14062H29.1474V29.1074H2.18164V2.14062Z" fill="white"/>
</mask>
<g mask="url(#mask0_1112_19615)">
<path fill-rule="evenodd" clip-rule="evenodd" d="M8.5883 25.5786C9.31598 25.5786 10.0023 25.8547 10.7287 26.147C15.1789 28.2046 20.442 27.2686 23.8709 23.841C28.3951 19.3143 28.3951 11.9509 23.8709 7.42666C21.6804 5.23608 18.7671 4.03038 15.6657 4.03038C12.563 4.03038 9.64846 5.23733 7.45913 7.42792C4.02898 10.8556 3.09553 16.1187 5.13431 20.5262C5.42789 21.2527 5.71144 21.9603 5.71144 22.6955C5.71144 23.4295 5.45926 24.1684 5.23719 24.8208C5.05401 25.3578 4.77674 26.1683 4.95489 26.3465C5.12929 26.5271 5.9448 26.2423 6.48303 26.0579C7.12917 25.8371 7.86187 25.5837 8.5883 25.5786ZM15.6349 29.1154C13.7178 29.1154 11.7882 28.7102 9.98277 27.8746C9.45081 27.6613 8.95272 27.4606 8.59515 27.4606C8.18364 27.4631 7.63034 27.6538 7.09587 27.8382C5.99933 28.2146 4.63429 28.6838 3.62431 27.6776C2.6181 26.6702 3.08231 25.3089 3.45619 24.2136C3.64062 23.6741 3.83007 23.1171 3.83007 22.6955C3.83007 22.3492 3.66321 21.9076 3.40726 21.2715C1.05734 16.1965 2.14385 10.0802 6.12981 6.09676C8.6742 3.55111 12.0604 2.14844 15.665 2.14844C19.2695 2.14844 22.657 3.54986 25.2014 6.0955C30.4608 11.3549 30.4608 19.9115 25.2014 25.1709C22.6232 27.7504 19.1516 29.1154 15.6349 29.1154Z" fill="black"/>
</g>
<path fill-rule="evenodd" clip-rule="evenodd" d="M20.619 17.4077C19.9265 17.4077 19.3594 16.8469 19.3594 16.1531C19.3594 15.4593 19.9152 14.8984 20.6077 14.8984H20.619C21.3116 14.8984 21.8737 15.4593 21.8737 16.1531C21.8737 16.8469 21.3116 17.4077 20.619 17.4077Z" fill="black"/>
<path fill-rule="evenodd" clip-rule="evenodd" d="M15.5917 17.4077C14.8991 17.4077 14.332 16.8469 14.332 16.1531C14.332 15.4593 14.8866 14.8984 15.5804 14.8984H15.5917C16.2842 14.8984 16.8463 15.4593 16.8463 16.1531C16.8463 16.8469 16.2842 17.4077 15.5917 17.4077Z" fill="black"/>
<path fill-rule="evenodd" clip-rule="evenodd" d="M10.5604 17.4077C9.86787 17.4077 9.30078 16.8469 9.30078 16.1531C9.30078 15.4593 9.85658 14.8984 10.5491 14.8984H10.5604C11.253 14.8984 11.8151 15.4593 11.8151 16.1531C11.8151 16.8469 11.253 17.4077 10.5604 17.4077Z" fill="black"/>
</svg>
