<svg width="26" height="21" viewBox="0 0 26 21" fill="none" xmlns="http://www.w3.org/2000/svg">
<path d="M13 0.101562C14.8062 0.101565 16.5948 0.467408 18.2635 1.17807C19.9324 1.8888 21.4493 2.9304 22.7266 4.24363C24.0039 5.55695 25.0172 7.11662 25.7085 8.83255C25.854 9.19369 25.9391 9.55061 25.9717 9.89859C26.0089 10.2953 26.0094 10.6978 25.9734 11.0947C25.9417 11.4454 25.8566 11.8053 25.7099 12.1694C25.0186 13.8854 24.0053 15.445 22.728 16.7583C21.4507 18.0716 19.9338 19.1132 18.2649 19.8239C16.5962 20.5346 14.8076 20.9004 13.0014 20.9004C11.1951 20.9004 9.40656 20.5346 7.73779 19.8239C6.06898 19.1132 4.55203 18.0716 3.27476 16.7583C1.99744 15.445 0.984091 13.8854 0.292813 12.1694C0.147718 11.8092 0.0621913 11.4532 0.0290535 11.106C-0.00879584 10.7095 -0.00967014 10.3071 0.0264659 9.91045C0.0585072 9.55872 0.144285 9.19778 0.291401 8.83255C0.982679 7.11662 1.99603 5.55695 3.27334 4.24363C4.55062 2.9304 6.06756 1.88879 7.73637 1.17807C9.40515 0.467414 11.1937 0.101563 13 0.101562Z" fill="#CCCCCC"/>
<path d="M18.0587 10.4985C18.0587 7.62675 15.7932 5.29876 12.9985 5.29876C10.2038 5.29876 7.93822 7.62675 7.93822 10.4985C7.93822 13.3702 10.2038 15.6982 12.9985 15.6982V17.9266C9.00604 17.9266 5.76953 14.6009 5.76953 10.4985C5.76953 6.39601 9.00604 3.07031 12.9985 3.07031C16.9909 3.07031 20.2274 6.39601 20.2274 10.4985C20.2274 14.6009 16.9909 17.9266 12.9985 17.9266V15.6982C15.7932 15.6982 18.0587 13.3702 18.0587 10.4985Z" fill="#F6F6F6"/>
<path d="M17.3413 8.27142C17.3413 9.50216 16.3703 10.4999 15.1726 10.4999C13.9749 10.4999 13.0039 9.50216 13.0039 8.27142C13.0039 7.04068 13.9749 6.04297 15.1726 6.04297C16.3703 6.04297 17.3413 7.04068 17.3413 8.27142Z" fill="#F6F6F6"/>
</svg>
