<svg width="27" height="27" viewBox="0 0 27 27" fill="none" xmlns="http://www.w3.org/2000/svg">
<mask id="mask0_1966_17573" style="mask-type:luminance" maskUnits="userSpaceOnUse" x="0" y="0" width="27" height="27">
<path fill-rule="evenodd" clip-rule="evenodd" d="M0.5 0.875H26.0906V26.0638H0.5V0.875Z" fill="white"/>
</mask>
<g mask="url(#mask0_1966_17573)">
<path fill-rule="evenodd" clip-rule="evenodd" d="M2.77995 12.659C4.53245 18.2933 11.4562 22.849 13.2962 23.9766C15.1424 22.8374 22.1162 18.2313 23.8124 12.6642C24.9262 9.06561 23.8924 4.50732 19.7849 3.13944C17.7949 2.4794 15.4737 2.88111 13.8712 4.16244C13.5362 4.42853 13.0712 4.43369 12.7337 4.17019C11.0362 2.8514 8.8187 2.46519 6.79745 3.13944C2.6962 4.50603 1.6662 9.06432 2.77995 12.659M13.2974 26.0639C13.1424 26.0639 12.9887 26.0252 12.8487 25.9464C12.4574 25.7255 3.2412 20.4762 0.994946 13.2506C0.993696 13.2506 0.993696 13.2493 0.993696 13.2493C-0.416304 8.70007 1.1537 2.98315 6.22245 1.29494C8.60245 0.499278 11.1962 0.849319 13.2937 2.21719C15.3262 0.889361 18.0262 0.522528 20.3587 1.29494C25.4324 2.98574 27.0074 8.70136 25.5987 13.2493C23.4249 20.3922 14.1412 25.7204 13.7474 25.9438C13.6074 26.0239 13.4524 26.0639 13.2974 26.0639" fill="#CF4B05"/>
</g>
</svg>
