<svg width="43" height="44" viewBox="0 0 43 44" fill="none" xmlns="http://www.w3.org/2000/svg">
<circle cx="21.5" cy="22" r="21.5" fill="#FAE100"/>
<path d="M21.5005 12.5625C15.4184 12.5625 10.4883 16.2992 10.4883 20.9112C10.4883 23.9121 12.5759 26.5421 15.7116 28.0136C15.4808 28.8371 14.8778 31.0006 14.7572 31.4632C14.6075 32.0374 14.9755 32.0295 15.2188 31.8759C15.408 31.7543 18.2359 29.9099 19.4565 29.1143C20.1198 29.208 20.8018 29.2579 21.5005 29.2579C27.5826 29.2579 32.5127 25.5212 32.5127 20.9092C32.5106 16.2992 27.5805 12.5625 21.5005 12.5625Z" fill="#371D1E"/>
<path d="M14.0709 19.926H15.1339C15.1339 19.926 15.1397 22.9902 15.1358 23.7046C15.1378 24.2265 16.2417 24.2327 16.2398 23.7127L16.2437 19.9669C16.2437 19.9669 16.6006 19.969 17.3008 19.969C17.962 19.969 17.962 18.878 17.3008 18.878C16.5557 18.878 14.067 18.8555 14.067 18.8555C13.4448 18.8575 13.4468 19.926 14.0709 19.926Z" fill="#FAE100"/>
<mask id="mask0_630_7762" style="mask-type:luminance" maskUnits="userSpaceOnUse" x="13" y="18" width="5" height="7">
<path d="M14.0709 19.926H15.1339C15.1339 19.926 15.1397 22.9902 15.1358 23.7046C15.1378 24.2265 16.2417 24.2327 16.2398 23.7127L16.2437 19.9669C16.2437 19.9669 16.6006 19.969 17.3008 19.969C17.962 19.969 17.962 18.878 17.3008 18.878C16.5557 18.878 14.067 18.8555 14.067 18.8555C13.4448 18.8575 13.4468 19.926 14.0709 19.926Z" fill="white"/>
</mask>
<g mask="url(#mask0_630_7762)">
<path d="M17.7967 18.8555H13.6016V24.0994H17.7967V18.8555Z" fill="#FAE100"/>
</g>
<path d="M19.4071 20.0619L19.9709 22.0048H18.795L19.4071 20.0619ZM18.7745 19.1518C18.5252 19.7551 17.6228 22.6081 17.3252 23.3648C17.1093 23.9109 18.0415 24.3588 18.2573 23.8107L18.4601 23.0315H20.3151C20.3151 23.0315 20.2518 23.0642 20.4974 23.7779C20.6965 24.3567 21.6602 23.9559 21.4612 23.3771C21.1765 22.5509 20.1904 19.5731 20.0099 19.1518C19.9281 18.9575 19.6304 18.8164 19.342 18.8164C19.1057 18.8185 18.8731 18.9125 18.7745 19.1518Z" fill="#FAE100"/>
<mask id="mask1_630_7762" style="mask-type:luminance" maskUnits="userSpaceOnUse" x="17" y="18" width="5" height="7">
<path d="M19.4071 20.0619L19.9709 22.0048H18.795L19.4071 20.0619ZM18.7745 19.1518C18.5252 19.7551 17.6228 22.6081 17.3252 23.3648C17.1093 23.9109 18.0415 24.3588 18.2573 23.8107L18.4601 23.0315H20.3151C20.3151 23.0315 20.2518 23.0642 20.4974 23.7779C20.6965 24.3567 21.6602 23.9559 21.4612 23.3771C21.1765 22.5509 20.1904 19.5731 20.0099 19.1518C19.9281 18.9575 19.6304 18.8164 19.342 18.8164C19.1057 18.8185 18.8731 18.9125 18.7745 19.1518Z" fill="white"/>
</mask>
<g mask="url(#mask1_630_7762)">
<path d="M21.4881 18.8164H17.293V24.0603H21.4881V18.8164Z" fill="#FAE100"/>
</g>
<path d="M21.9922 19.3702C21.9943 20.3423 21.9985 23.4759 21.9985 23.4759C21.9985 23.4759 21.9065 24.0994 22.452 24.0994C22.9953 24.0994 24.2033 24.0932 24.7383 24.0932C25.2733 24.0932 25.2712 22.9755 24.7362 22.9755C24.2012 22.9755 23.2231 22.9694 23.2231 22.9694C23.2231 22.9694 23.2273 20.0716 23.2252 19.3661C23.2252 19.0257 22.9159 18.8555 22.6087 18.8555C22.2994 18.8575 21.9901 19.0298 21.9922 19.3702Z" fill="#FAE100"/>
<mask id="mask2_630_7762" style="mask-type:luminance" maskUnits="userSpaceOnUse" x="21" y="18" width="5" height="7">
<path d="M21.9922 19.3702C21.9943 20.3423 21.9985 23.4759 21.9985 23.4759C21.9985 23.4759 21.9065 24.0994 22.452 24.0994C22.9953 24.0994 24.2033 24.0932 24.7383 24.0932C25.2733 24.0932 25.2712 22.9755 24.7362 22.9755C24.2012 22.9755 23.2231 22.9694 23.2231 22.9694C23.2231 22.9694 23.2273 20.0716 23.2252 19.3661C23.2252 19.0257 22.9159 18.8555 22.6087 18.8555C22.2994 18.8575 21.9901 19.0298 21.9922 19.3702Z" fill="white"/>
</mask>
<g mask="url(#mask2_630_7762)">
<path d="M25.1385 18.8555H21.9922V24.0994H25.1385V18.8555Z" fill="#FAE100"/>
</g>
<path d="M25.4488 19.172C25.4619 19.5972 25.4336 23.4397 25.4336 23.7238C25.4336 24.1735 26.6521 24.1714 26.6521 23.7238C26.6521 23.2026 26.6521 22.2113 26.6521 22.2113L27.0089 21.9415L28.5733 23.9446C28.8888 24.337 29.8832 23.6278 29.5677 23.2374L27.9075 21.1833C27.9075 21.1833 29.0346 20.0387 29.4785 19.6238C29.7374 19.3826 28.9345 18.6222 28.6756 18.8655C28.4254 19.0985 26.6586 20.7602 26.6586 20.7602C26.6586 20.7602 26.6738 19.7178 26.6586 19.1414C26.6521 18.9227 26.367 18.8164 26.0733 18.8164C25.7621 18.8164 25.4423 18.937 25.4488 19.172Z" fill="#FAE100"/>
<mask id="mask3_630_7762" style="mask-type:luminance" maskUnits="userSpaceOnUse" x="25" y="18" width="5" height="7">
<path d="M25.4488 19.172C25.4619 19.5972 25.4336 23.4397 25.4336 23.7238C25.4336 24.1735 26.6521 24.1714 26.6521 23.7238C26.6521 23.2026 26.6521 22.2113 26.6521 22.2113L27.0089 21.9415L28.5733 23.9446C28.8888 24.337 29.8832 23.6278 29.5677 23.2374L27.9075 21.1833C27.9075 21.1833 29.0346 20.0387 29.4785 19.6238C29.7374 19.3826 28.9345 18.6222 28.6756 18.8655C28.4254 19.0985 26.6586 20.7602 26.6586 20.7602C26.6586 20.7602 26.6738 19.7178 26.6586 19.1414C26.6521 18.9227 26.367 18.8164 26.0733 18.8164C25.7621 18.8164 25.4423 18.937 25.4488 19.172Z" fill="white"/>
</mask>
<g mask="url(#mask3_630_7762)">
<path d="M29.6287 18.8164H25.4336V24.0603H29.6287V18.8164Z" fill="#FAE100"/>
</g>
</svg>
