<svg width="32" height="32" viewBox="0 0 32 32" fill="none" xmlns="http://www.w3.org/2000/svg">
<mask id="mask0_579_39483" style="mask-type:luminance" maskUnits="userSpaceOnUse" x="2" y="4" width="26" height="26">
<path fill-rule="evenodd" clip-rule="evenodd" d="M2.72949 4.37598H27.9157V29.5622H2.72949V4.37598Z" fill="white"/>
</mask>
<g mask="url(#mask0_579_39483)">
<path fill-rule="evenodd" clip-rule="evenodd" d="M14.1025 19.6403L18.8262 27.3037C19.0328 27.6396 19.3558 27.6357 19.4862 27.6176C19.6167 27.5995 19.9305 27.5194 20.0442 27.1384L25.951 7.18862C26.0543 6.83599 25.8645 6.59574 25.7792 6.51049C25.6965 6.42524 25.4602 6.24312 25.1179 6.33999L5.15388 12.1861C4.77542 12.2972 4.69275 12.6149 4.67467 12.7454C4.65659 12.8784 4.65142 13.2078 4.98596 13.4183L12.7373 18.2659L19.5857 11.3452C19.9615 10.9654 20.5751 10.9616 20.9561 11.3374C21.3372 11.7133 21.3398 12.3282 20.9639 12.7079L14.1025 19.6403ZM19.3855 29.5629C18.4865 29.5629 17.6624 29.1056 17.1767 28.3203L12.1689 20.1944L3.95909 15.06C3.0743 14.5059 2.61188 13.5191 2.75525 12.4819C2.89734 11.4447 3.60905 10.6206 4.6088 10.3274L24.5728 4.48128C25.4912 4.21262 26.4754 4.46707 27.1523 5.14132C27.8291 5.82203 28.081 6.81662 27.8071 7.73887L21.9003 27.6874C21.6045 28.691 20.7779 29.4001 19.7433 29.5383C19.6218 29.5538 19.5043 29.5629 19.3855 29.5629Z" fill="black"/>
</g>
</svg>
