<svg width="26" height="26" viewBox="0 0 26 26" fill="none" xmlns="http://www.w3.org/2000/svg">
<path d="M13 2.60156C14.8062 2.60156 16.5948 2.96741 18.2635 3.67807C19.9324 4.3888 21.4493 5.4304 22.7266 6.74363C24.0039 8.05695 25.0172 9.61662 25.7085 11.3326C25.854 11.6937 25.9391 12.0506 25.9717 12.3986C26.0089 12.7953 26.0094 13.1978 25.9734 13.5947C25.9417 13.9454 25.8566 14.3053 25.7099 14.6694C25.0186 16.3854 24.0053 17.945 22.728 19.2583C21.4507 20.5716 19.9338 21.6132 18.2649 22.3239C16.5962 23.0346 14.8076 23.4004 13.0014 23.4004C11.1951 23.4004 9.40656 23.0346 7.73779 22.3239C6.06898 21.6132 4.55203 20.5716 3.27476 19.2583C1.99744 17.945 0.984091 16.3854 0.292813 14.6694C0.147718 14.3092 0.0621913 13.9532 0.0290535 13.606C-0.00879584 13.2095 -0.00967014 12.8071 0.0264659 12.4105C0.0585072 12.0587 0.144285 11.6978 0.291401 11.3326C0.982679 9.61662 1.99603 8.05695 3.27334 6.74363C4.55062 5.4304 6.06756 4.38879 7.73637 3.67807C9.40515 2.96741 11.1937 2.60156 13 2.60156Z" fill="#CCCCCC"/>
<path d="M18.0587 12.9985C18.0587 10.1268 15.7932 7.79876 12.9985 7.79876C10.2038 7.79876 7.93822 10.1268 7.93822 12.9985C7.93822 15.8702 10.2038 18.1982 12.9985 18.1982V20.4266C9.00604 20.4266 5.76953 17.1009 5.76953 12.9985C5.76953 8.89601 9.00604 5.57031 12.9985 5.57031C16.9909 5.57031 20.2274 8.89601 20.2274 12.9985C20.2274 17.1009 16.9909 20.4266 12.9985 20.4266V18.1982C15.7932 18.1982 18.0587 15.8702 18.0587 12.9985Z" fill="#F6F6F6"/>
<path d="M17.3413 10.7714C17.3413 12.0022 16.3703 12.9999 15.1726 12.9999C13.9749 12.9999 13.0039 12.0022 13.0039 10.7714C13.0039 9.54068 13.9749 8.54297 15.1726 8.54297C16.3703 8.54297 17.3413 9.54068 17.3413 10.7714Z" fill="#F6F6F6"/>
<path d="M2.11472 0.326607C2.51174 -0.0813535 3.14026 -0.107297 3.56616 0.249714L3.64805 0.326607L25.3349 22.6111L25.4097 22.6952C25.7572 23.1329 25.7319 23.7787 25.3349 24.1867C24.9379 24.5946 24.3094 24.6206 23.8835 24.2636L23.8016 24.1867L2.11472 1.90219L2.03989 1.81804C1.69246 1.3804 1.7177 0.734567 2.11472 0.326607Z" fill="#F6F6F6"/>
<path d="M0.66941 1.81489C1.06643 1.40693 1.69495 1.38098 2.12085 1.73799L2.20274 1.81489L23.8896 24.0994L23.9644 24.1835C24.3119 24.6212 24.2866 25.267 23.8896 25.675C23.4926 26.0829 22.8641 26.1089 22.4382 25.7519L22.3563 25.675L0.66941 3.39047L0.594579 3.30632C0.247143 2.86868 0.272391 2.22285 0.66941 1.81489Z" fill="#CCCCCC"/>
</svg>
